<svg width="320" height="450" viewBox="0 0 320 450" fill="none" xmlns="http://www.w3.org/2000/svg">
<g opacity="0.1">
<path fill-rule="evenodd" clip-rule="evenodd" d="M9.57501 225C9.57501 343.918 104.925 440.319 222.544 440.319C340.164 440.319 435.513 343.918 435.513 225C435.513 106.082 340.164 9.68067 222.544 9.68067C104.925 9.68067 9.57501 106.082 9.57501 225ZM222.544 450C99.6364 450 0 349.264 0 225C0 100.736 99.6364 0 222.544 0C345.452 0 445.088 100.736 445.088 225C445.088 349.264 345.452 450 222.544 450Z" fill="#FFF8E9"/>
<path d="M342.167 400.862H319.363C319.363 400.862 326.909 400.449 326.909 384.768V63.9076C326.909 48.123 319.363 47.8135 319.363 47.8135H342.167C342.167 47.8135 334.62 48.0198 334.62 64.114V384.458C334.62 400.553 342.167 400.862 342.167 400.862Z" fill="#FFF8E9"/>
<path d="M105.155 400.862H127.959C127.959 400.862 120.413 400.449 120.413 384.768V63.9076C120.413 48.123 127.959 47.8135 127.959 47.8135H105.155C105.155 47.8135 112.702 48.0198 112.702 64.114V384.458C112.702 400.553 105.155 400.862 105.155 400.862Z" fill="#FFF8E9"/>
<path d="M289.312 389.609H266.508C266.508 389.609 274.055 389.196 274.055 373.515V77.9672C274.055 62.1825 266.508 61.873 266.508 61.873H289.312C289.312 61.873 281.765 62.0794 281.765 78.1735V373.205C281.765 389.3 289.312 389.609 289.312 389.609Z" fill="#FFF8E9"/>
<path d="M158.008 389.609H180.812C180.812 389.609 173.265 389.196 173.265 373.515V77.9672C173.265 62.1825 180.812 61.873 180.812 61.873H158.008C158.008 61.873 165.554 62.0794 165.554 78.1735V373.205C165.554 389.3 158.008 389.609 158.008 389.609Z" fill="#FFF8E9"/>
<path d="M212.254 367.117H235.058C235.058 367.117 227.512 366.705 227.512 351.023V100.475C227.512 84.6908 235.058 84.3813 235.058 84.3813H212.254C212.254 84.3813 219.801 84.5877 219.801 100.682V350.714C219.801 366.808 212.254 367.117 212.254 367.117Z" fill="#FFF8E9"/>
</g>
</svg>
