<svg width="200" height="200" viewBox="0 0 200 200" fill="none" xmlns="http://www.w3.org/2000/svg">
<g filter="url(#filter0_d_45_12769)">
<path fill-rule="evenodd" clip-rule="evenodd" d="M93.3376 79.4899C90.0688 77.4783 88.4344 76.4726 87.0872 76.5875C85.9127 76.6876 84.838 77.2881 84.1372 78.2359C83.3333 79.3231 83.3333 81.2421 83.3333 85.0803V114.92C83.3333 118.758 83.3333 120.677 84.1372 121.764C84.838 122.712 85.9127 123.312 87.0872 123.413C88.4344 123.528 90.0688 122.522 93.3376 120.51L117.582 105.59C120.589 103.74 122.092 102.815 122.605 101.627C123.053 100.589 123.053 99.4116 122.605 98.3736C122.092 97.1847 120.589 96.2597 117.582 94.4097L93.3376 79.4899Z" fill="#DBCCA9"/>
<rect x="40.5" y="40.5" width="119" height="119" rx="59.5" stroke="#DBCCA9" shape-rendering="crispEdges"/>
</g>
<circle cx="100" cy="100" r="79.75" stroke="white" stroke-opacity="0.4" stroke-width="0.5"/>
<circle cx="100" cy="100" r="99.75" stroke="white" stroke-opacity="0.1" stroke-width="0.5"/>
<defs>
<filter id="filter0_d_45_12769" x="0" y="0" width="200" height="200" filterUnits="userSpaceOnUse" color-interpolation-filters="sRGB">
<feFlood flood-opacity="0" result="BackgroundImageFix"/>
<feColorMatrix in="SourceAlpha" type="matrix" values="0 0 0 0 0 0 0 0 0 0 0 0 0 0 0 0 0 0 127 0" result="hardAlpha"/>
<feOffset/>
<feGaussianBlur stdDeviation="20"/>
<feComposite in2="hardAlpha" operator="out"/>
<feColorMatrix type="matrix" values="0 0 0 0 0.85098 0 0 0 0 0.792157 0 0 0 0 0.384314 0 0 0 1 0"/>
<feBlend mode="normal" in2="BackgroundImageFix" result="effect1_dropShadow_45_12769"/>
<feBlend mode="normal" in="SourceGraphic" in2="effect1_dropShadow_45_12769" result="shape"/>
</filter>
</defs>
</svg>
