<svg width="146" height="92" viewBox="0 0 146 92" fill="none" xmlns="http://www.w3.org/2000/svg">
<path d="M0 78.653L3.08246 78.6418C3.08246 78.6418 2.06237 78.5973 2.06237 76.9598V72.582H5.77684C5.94316 72.582 6.10948 72.582 6.26471 72.582L9.61329 76.8706C10.966 78.6084 9.9681 78.6418 9.9681 78.6418H13.4165C13.4165 78.6418 12.3631 78.5973 11.0436 76.9041L7.61745 72.5151C11.0991 72.2143 13.5939 70.9444 13.5939 67.558C13.5939 63.6035 10.1788 62.6901 5.77684 62.6901H0C0 62.6901 1.02009 62.7235 1.02009 64.4613V76.8818C1.02009 78.6195 0 78.653 0 78.653ZM2.06237 64.4279C2.06237 63.1134 2.8607 62.9686 3.03811 62.9686H5.62161C10.0014 62.9686 12.3853 64.4501 12.3853 67.5915C12.3853 70.7217 9.73526 72.3035 5.62161 72.3035H2.06237V64.4279Z" fill="white"/>
<path d="M16.9735 78.6418H28.882L29.2701 76.8929C29.2701 76.8929 28.76 78.3633 24.8238 78.3633H20.0449C19.812 78.3633 19.0359 78.2742 19.0359 76.9041V69.7859H23.0719C25.2119 69.7859 25.6 71.0113 25.6 71.0113V68.271C25.6 68.271 25.2119 69.4963 23.0719 69.4963H19.0359V64.4279C19.0359 63.0354 19.8675 62.9686 20.0449 62.9686H24.8238C28.76 62.9686 29.2701 64.4279 29.2701 64.4279L28.882 62.6901H16.9735C16.9735 62.6901 17.9936 62.7124 17.9936 64.4501V76.8706C17.9936 78.6084 16.9735 78.6418 16.9735 78.6418Z" fill="white"/>
<path d="M32.6608 78.6418H35.1445C35.1445 78.6418 34.1244 78.5973 34.1244 76.8929V64.4167C34.1244 64.1048 34.1687 63.7818 34.2685 63.481C34.5568 63.7706 34.8119 64.0937 35.0225 64.4501C35.8874 65.798 44.1036 78.6418 44.1036 78.6418C44.1036 78.6418 44.1147 65.4972 44.1147 64.4167C44.1147 62.7235 45.1237 62.679 45.1237 62.679H42.6511C42.6511 62.679 43.6601 62.7124 43.6601 64.4501C43.6601 65.5529 43.6712 73.2837 43.6712 76.0797C42.1521 73.6625 37.096 65.6198 36.3309 64.4167C35.2443 62.7235 36.2422 62.679 36.2422 62.679H32.6608C32.6608 62.679 33.6809 62.7124 33.6809 64.4501V76.8706C33.6809 78.6084 32.6608 78.6418 32.6608 78.6418Z" fill="white"/>
<path d="M48.5033 78.6418H60.4118L60.7999 76.8929C60.7999 76.8929 60.2898 78.3633 56.3536 78.3633H51.5747C51.3418 78.3633 50.5657 78.2742 50.5657 76.9041V69.7859H54.6017C56.7417 69.7859 57.1298 71.0113 57.1298 71.0113V68.271C57.1298 68.271 56.7417 69.4963 54.6017 69.4963H50.5657V64.4279C50.5657 63.0354 51.3973 62.9686 51.5747 62.9686H56.3536C60.2898 62.9686 60.7999 64.4279 60.7999 64.4279L60.4118 62.6901H48.5033C48.5033 62.6901 49.5234 62.7124 49.5234 64.4501V76.8706C49.5234 78.6084 48.5033 78.6418 48.5033 78.6418Z" fill="white"/>
<path d="M70.2668 78.653C74.6022 78.6307 77.7068 77.5613 77.7068 74.1192C77.7068 68.0927 65.5211 70.9667 65.5211 66.3995C65.5211 63.1691 69.1913 62.9686 70.289 62.9686C73.8815 62.9686 76.0769 66.1656 76.0769 66.1656L75.6334 63.9823C75.6334 63.9823 73.6043 62.679 70.289 62.679C69.2578 62.679 64.3126 62.8683 64.3126 66.3661C64.3126 72.025 76.3763 69.073 76.3763 74.1415C76.3763 77.2605 73.1275 78.3633 70.2779 78.3633C64.8891 78.3633 64.2349 73.0832 64.2349 73.0832L63.6362 75.3668C64.113 76.6479 65.9314 78.6641 70.2668 78.653Z" fill="white"/>
<path d="M87.8391 78.653C92.1745 78.6307 95.2791 77.5613 95.2791 74.1192C95.2791 68.0927 83.0934 70.9667 83.0934 66.3995C83.0934 63.1691 86.7635 62.9686 87.8612 62.9686C91.4537 62.9686 93.6492 66.1656 93.6492 66.1656L93.2056 63.9823C93.2056 63.9823 91.1765 62.679 87.8612 62.679C86.83 62.679 81.8848 62.8683 81.8848 66.3661C81.8848 72.025 93.9485 69.073 93.9485 74.1415C93.9485 77.2605 90.6998 78.3633 87.8501 78.3633C82.4614 78.3633 81.8072 73.0832 81.8072 73.0832L81.2084 75.3668C81.6852 76.6479 83.5037 78.6641 87.8391 78.653Z" fill="white"/>
<path d="M99.7675 76.8706C100.322 75.5562 101.187 73.5177 101.641 72.4149L108.272 72.4037C108.727 73.4842 109.591 75.5339 110.157 76.8706C110.889 78.6084 109.891 78.6418 109.891 78.6418H113.04C113.04 78.6418 111.998 78.5973 111.288 76.9041C107.041 66.8563 105.289 62.679 105.289 62.679C105.289 62.679 99.956 75.3668 99.3129 76.9041C98.6033 78.5973 97.561 78.6418 97.561 78.6418H100.045C100.045 78.6418 99.0468 78.6084 99.7675 76.8706ZM104.957 64.5504C105.256 65.2745 106.154 67.391 108.128 72.0695H101.786C103.427 68.1819 104.424 65.8091 104.957 64.5504Z" fill="white"/>
<path d="M116.419 78.6418H118.903C118.903 78.6418 117.883 78.5973 117.883 76.8929V64.4167C117.883 64.1048 117.927 63.7818 118.027 63.481C118.316 63.7706 118.571 64.0937 118.781 64.4501C119.646 65.798 127.862 78.6418 127.862 78.6418C127.862 78.6418 127.873 65.4972 127.873 64.4167C127.873 62.7235 128.882 62.679 128.882 62.679H126.41C126.41 62.679 127.419 62.7124 127.419 64.4501C127.419 65.5529 127.43 73.2837 127.43 76.0797C125.911 73.6625 120.855 65.6198 120.09 64.4167C119.003 62.7235 120.001 62.679 120.001 62.679H116.419C116.419 62.679 117.44 62.7124 117.44 64.4501V76.8706C117.44 78.6084 116.419 78.6418 116.419 78.6418Z" fill="white"/>
<path d="M138.56 78.653C142.895 78.6307 146 77.5613 146 74.1192C146 68.0927 133.814 70.9667 133.814 66.3995C133.814 63.1691 137.484 62.9686 138.582 62.9686C142.175 62.9686 144.37 66.1656 144.37 66.1656L143.927 63.9823C143.927 63.9823 141.897 62.679 138.582 62.679C137.551 62.679 132.606 62.8683 132.606 66.3661C132.606 72.025 144.669 69.073 144.669 74.1415C144.669 77.2605 141.421 78.3633 138.571 78.3633C133.182 78.3633 132.528 73.0832 132.528 73.0832L131.929 75.3668C132.406 76.6479 134.225 78.6641 138.56 78.653Z" fill="white"/>
<path fill-rule="evenodd" clip-rule="evenodd" d="M49.8583 24.2943C49.8583 37.1343 60.2191 47.5433 72.9999 47.5433C85.7806 47.5433 96.1414 37.1343 96.1414 24.2943C96.1414 11.4542 85.7806 1.04527 72.9999 1.04527C60.2191 1.04527 49.8583 11.4542 49.8583 24.2943ZM72.9999 48.5885C59.6445 48.5885 48.8179 37.7116 48.8179 24.2943C48.8179 10.8769 59.6445 0 72.9999 0C86.3552 0 97.1818 10.8769 97.1818 24.2943C97.1818 37.7116 86.3552 48.5885 72.9999 48.5885Z" fill="white"/>
<path d="M85.9983 43.2831H83.5204C83.5204 43.2831 84.3404 43.2385 84.3404 41.5453V6.9006C84.3404 5.19626 83.5204 5.16284 83.5204 5.16284H85.9983C85.9983 5.16284 85.1783 5.18512 85.1783 6.92288V41.5119C85.1783 43.2497 85.9983 43.2831 85.9983 43.2831Z" fill="white"/>
<path d="M60.2441 43.2831H62.7221C62.7221 43.2831 61.902 43.2385 61.902 41.5453V6.9006C61.902 5.19626 62.7221 5.16284 62.7221 5.16284H60.2441C60.2441 5.16284 61.0642 5.18512 61.0642 6.92288V41.5119C61.0642 43.2497 60.2441 43.2831 60.2441 43.2831Z" fill="white"/>
<path d="M80.2551 42.0678H77.7772C77.7772 42.0678 78.5972 42.0232 78.5972 40.33V8.41842C78.5972 6.71408 77.7772 6.68066 77.7772 6.68066H80.2551C80.2551 6.68066 79.4351 6.70294 79.4351 8.4407V40.2966C79.4351 42.0344 80.2551 42.0678 80.2551 42.0678Z" fill="white"/>
<path d="M65.9873 42.0678H68.4652C68.4652 42.0678 67.6452 42.0232 67.6452 40.33V8.41842C67.6452 6.71408 68.4652 6.68066 68.4652 6.68066H65.9873C65.9873 6.68066 66.8073 6.70294 66.8073 8.4407V40.2966C66.8073 42.0344 65.9873 42.0678 65.9873 42.0678Z" fill="white"/>
<path d="M71.8818 39.6384H74.3597C74.3597 39.6384 73.5397 39.5938 73.5397 37.9006V10.8479C73.5397 9.14353 74.3597 9.11011 74.3597 9.11011H71.8818C71.8818 9.11011 72.7019 9.13239 72.7019 10.8701V37.8672C72.7019 39.605 71.8818 39.6384 71.8818 39.6384Z" fill="white"/>
<path d="M65.3687 85.4507V88.3044H61.7366V85.4507H61.0847V92.0001H61.7366V88.9312H65.3687V92.0001H66.0207V85.4507H65.3687Z" fill="white"/>
<path d="M73.2338 92.0001H73.9416L71.1756 85.4507H70.5702L67.8694 92.0001H68.5679L69.2571 90.3347H72.5353L73.2338 92.0001ZM70.8776 86.3676L72.2838 89.7265H69.4992L70.8776 86.3676Z" fill="white"/>
<path d="M76.4597 91.392V85.4507H75.8078V92.0001H79.4305V91.392H76.4597Z" fill="white"/>
<path d="M81.9431 91.392V85.4507H81.2912V92.0001H84.914V91.392H81.9431Z" fill="white"/>
</svg>
